<svg xmlns="http://www.w3.org/2000/svg" version="1.1" xmlns:xlink="http://www.w3.org/1999/xlink" xmlns:svgjs="http://svgjs.com/svgjs" width="1920" height="1080" preserveAspectRatio="none" viewBox="0 0 1920 1080"><g mask="url(&quot;#SvgjsMask1701&quot;)" fill="none"><rect width="1920" height="1080" x="0" y="0" fill="url(#SvgjsLinearGradient1702)"></rect><path d="M72 290L746 -384" stroke-width="8" stroke="url(#SvgjsLinearGradient1703)" stroke-linecap="round" class="BottomLeft"></path><path d="M1547 422L1160 809" stroke-width="10" stroke="url(#SvgjsLinearGradient1703)" stroke-linecap="round" class="BottomLeft"></path><path d="M663 937L-94 1694" stroke-width="8" stroke="url(#SvgjsLinearGradient1704)" stroke-linecap="round" class="TopRight"></path><path d="M172 844L950 66" stroke-width="8" stroke="url(#SvgjsLinearGradient1704)" stroke-linecap="round" class="TopRight"></path><path d="M1595 646L795 1446" stroke-width="10" stroke="url(#SvgjsLinearGradient1704)" stroke-linecap="round" class="TopRight"></path><path d="M719 507L1435 -209" stroke-width="10" stroke="url(#SvgjsLinearGradient1704)" stroke-linecap="round" class="TopRight"></path><path d="M616 258L62 812" stroke-width="6" stroke="url(#SvgjsLinearGradient1703)" stroke-linecap="round" class="BottomLeft"></path><path d="M1075 285L580 780" stroke-width="10" stroke="url(#SvgjsLinearGradient1703)" stroke-linecap="round" class="BottomLeft"></path><path d="M968 597L588 977" stroke-width="10" stroke="url(#SvgjsLinearGradient1703)" stroke-linecap="round" class="BottomLeft"></path><path d="M1712 569L2246 35" stroke-width="10" stroke="url(#SvgjsLinearGradient1703)" stroke-linecap="round" class="BottomLeft"></path><path d="M1097 452L478 1071" stroke-width="10" stroke="url(#SvgjsLinearGradient1703)" stroke-linecap="round" class="BottomLeft"></path><path d="M635 939L-17 1591" stroke-width="6" stroke="url(#SvgjsLinearGradient1704)" stroke-linecap="round" class="TopRight"></path><path d="M716 467L-35 1218" stroke-width="10" stroke="url(#SvgjsLinearGradient1704)" stroke-linecap="round" class="TopRight"></path><path d="M193 781L-585 1559" stroke-width="10" stroke="url(#SvgjsLinearGradient1703)" stroke-linecap="round" class="BottomLeft"></path><path d="M816 1072L160 1728" stroke-width="10" stroke="url(#SvgjsLinearGradient1703)" stroke-linecap="round" class="BottomLeft"></path><path d="M346 351L775 -78" stroke-width="6" stroke="url(#SvgjsLinearGradient1703)" stroke-linecap="round" class="BottomLeft"></path><path d="M789 1033L1472 350" stroke-width="8" stroke="url(#SvgjsLinearGradient1703)" stroke-linecap="round" class="BottomLeft"></path><path d="M708 945L-61 1714" stroke-width="8" stroke="url(#SvgjsLinearGradient1704)" stroke-linecap="round" class="TopRight"></path><path d="M189 406L-186 781" stroke-width="6" stroke="url(#SvgjsLinearGradient1704)" stroke-linecap="round" class="TopRight"></path><path d="M1250 90L1792 -452" stroke-width="6" stroke="url(#SvgjsLinearGradient1704)" stroke-linecap="round" class="TopRight"></path><path d="M446 879L151 1174" stroke-width="10" stroke="url(#SvgjsLinearGradient1703)" stroke-linecap="round" class="BottomLeft"></path><path d="M354 1051L713 692" stroke-width="8" stroke="url(#SvgjsLinearGradient1704)" stroke-linecap="round" class="TopRight"></path><path d="M1014 742L405 1351" stroke-width="6" stroke="url(#SvgjsLinearGradient1704)" stroke-linecap="round" class="TopRight"></path><path d="M205 345L-199 749" stroke-width="6" stroke="url(#SvgjsLinearGradient1703)" stroke-linecap="round" class="BottomLeft"></path><path d="M1294 328L1935 -313" stroke-width="6" stroke="url(#SvgjsLinearGradient1703)" stroke-linecap="round" class="BottomLeft"></path><path d="M1707 84L1004 787" stroke-width="6" stroke="url(#SvgjsLinearGradient1704)" stroke-linecap="round" class="TopRight"></path><path d="M33 1044L-239 1316" stroke-width="6" stroke="url(#SvgjsLinearGradient1704)" stroke-linecap="round" class="TopRight"></path><path d="M1765 770L1420 1115" stroke-width="6" stroke="url(#SvgjsLinearGradient1703)" stroke-linecap="round" class="BottomLeft"></path><path d="M1378 901L1764 515" stroke-width="8" stroke="url(#SvgjsLinearGradient1703)" stroke-linecap="round" class="BottomLeft"></path><path d="M1169 1038L839 1368" stroke-width="6" stroke="url(#SvgjsLinearGradient1704)" stroke-linecap="round" class="TopRight"></path><path d="M580 724L-14 1318" stroke-width="8" stroke="url(#SvgjsLinearGradient1704)" stroke-linecap="round" class="TopRight"></path><path d="M1428 390L2093 -275" stroke-width="8" stroke="url(#SvgjsLinearGradient1703)" stroke-linecap="round" class="BottomLeft"></path><path d="M540 379L-156 1075" stroke-width="10" stroke="url(#SvgjsLinearGradient1704)" stroke-linecap="round" class="TopRight"></path><path d="M1426 846L692 1580" stroke-width="6" stroke="url(#SvgjsLinearGradient1703)" stroke-linecap="round" class="BottomLeft"></path><path d="M54 921L-586 1561" stroke-width="10" stroke="url(#SvgjsLinearGradient1703)" stroke-linecap="round" class="BottomLeft"></path><path d="M453 116L1007 -438" stroke-width="8" stroke="url(#SvgjsLinearGradient1704)" stroke-linecap="round" class="TopRight"></path><path d="M508 651L1304 -145" stroke-width="6" stroke="url(#SvgjsLinearGradient1703)" stroke-linecap="round" class="BottomLeft"></path><path d="M1883 714L1505 1092" stroke-width="10" stroke="url(#SvgjsLinearGradient1704)" stroke-linecap="round" class="TopRight"></path><path d="M221 956L-126 1303" stroke-width="8" stroke="url(#SvgjsLinearGradient1703)" stroke-linecap="round" class="BottomLeft"></path><path d="M126 716L484 358" stroke-width="10" stroke="url(#SvgjsLinearGradient1703)" stroke-linecap="round" class="BottomLeft"></path><path d="M386 106L664 -172" stroke-width="6" stroke="url(#SvgjsLinearGradient1703)" stroke-linecap="round" class="BottomLeft"></path><path d="M1404 981L1131 1254" stroke-width="10" stroke="url(#SvgjsLinearGradient1703)" stroke-linecap="round" class="BottomLeft"></path><path d="M1855 834L1468 1221" stroke-width="6" stroke="url(#SvgjsLinearGradient1703)" stroke-linecap="round" class="BottomLeft"></path><path d="M820 732L284 1268" stroke-width="8" stroke="url(#SvgjsLinearGradient1704)" stroke-linecap="round" class="TopRight"></path><path d="M245 739L-54 1038" stroke-width="8" stroke="url(#SvgjsLinearGradient1703)" stroke-linecap="round" class="BottomLeft"></path><path d="M1097 303L1737 -337" stroke-width="8" stroke="url(#SvgjsLinearGradient1704)" stroke-linecap="round" class="TopRight"></path><path d="M1040 1007L1451 596" stroke-width="8" stroke="url(#SvgjsLinearGradient1703)" stroke-linecap="round" class="BottomLeft"></path><path d="M384 91L-329 804" stroke-width="8" stroke="url(#SvgjsLinearGradient1703)" stroke-linecap="round" class="BottomLeft"></path><path d="M836 597L45 1388" stroke-width="6" stroke="url(#SvgjsLinearGradient1703)" stroke-linecap="round" class="BottomLeft"></path><path d="M755 20L112 663" stroke-width="10" stroke="url(#SvgjsLinearGradient1704)" stroke-linecap="round" class="TopRight"></path><path d="M565 75L1165 -525" stroke-width="10" stroke="url(#SvgjsLinearGradient1703)" stroke-linecap="round" class="BottomLeft"></path><path d="M776 815L1545 46" stroke-width="10" stroke="url(#SvgjsLinearGradient1704)" stroke-linecap="round" class="TopRight"></path><path d="M178 972L950 200" stroke-width="6" stroke="url(#SvgjsLinearGradient1703)" stroke-linecap="round" class="BottomLeft"></path><path d="M1664 21L1972 -287" stroke-width="8" stroke="url(#SvgjsLinearGradient1703)" stroke-linecap="round" class="BottomLeft"></path><path d="M75 745L-576 1396" stroke-width="10" stroke="url(#SvgjsLinearGradient1704)" stroke-linecap="round" class="TopRight"></path><path d="M1557 179L2031 -295" stroke-width="6" stroke="url(#SvgjsLinearGradient1704)" stroke-linecap="round" class="TopRight"></path></g><defs><mask id="SvgjsMask1701"><rect width="1920" height="1080" fill="#ffffff"></rect></mask><linearGradient x1="89.06%" y1="-19.44%" x2="10.94%" y2="119.44%" gradientUnits="userSpaceOnUse" id="SvgjsLinearGradient1702"><stop stop-color="#0e2a47" offset="0"></stop><stop stop-color="rgba(68, 4, 0, 1)" offset="1"></stop></linearGradient><linearGradient x1="100%" y1="0%" x2="0%" y2="100%" id="SvgjsLinearGradient1703"><stop stop-color="rgba(154, 134, 134, 0)" offset="0"></stop><stop stop-color="rgba(154, 134, 134, 1)" offset="1"></stop></linearGradient><linearGradient x1="0%" y1="100%" x2="100%" y2="0%" id="SvgjsLinearGradient1704"><stop stop-color="rgba(154, 134, 134, 0)" offset="0"></stop><stop stop-color="rgba(154, 134, 134, 1)" offset="1"></stop></linearGradient></defs></svg>