<svg xmlns="http://www.w3.org/2000/svg" version="1.1" xmlns:xlink="http://www.w3.org/1999/xlink" xmlns:svgjs="http://svgjs.com/svgjs" width="600" height="900" preserveAspectRatio="none" viewBox="0 0 600 900"><g mask="url(&quot;#SvgjsMask1781&quot;)" fill="none"><rect width="600" height="900" x="0" y="0" fill="url(#SvgjsLinearGradient1782)"></rect><path d="M599 787L858 528" stroke-width="6" stroke="url(#SvgjsLinearGradient1783)" stroke-linecap="round" class="TopRight"></path><path d="M403 402L18 787" stroke-width="10" stroke="url(#SvgjsLinearGradient1784)" stroke-linecap="round" class="BottomLeft"></path><path d="M599 619L166 1052" stroke-width="8" stroke="url(#SvgjsLinearGradient1783)" stroke-linecap="round" class="TopRight"></path><path d="M47 173L323 -103" stroke-width="10" stroke="url(#SvgjsLinearGradient1784)" stroke-linecap="round" class="BottomLeft"></path><path d="M449 260L150 559" stroke-width="8" stroke="url(#SvgjsLinearGradient1784)" stroke-linecap="round" class="BottomLeft"></path><path d="M208 34L642 -400" stroke-width="6" stroke="url(#SvgjsLinearGradient1783)" stroke-linecap="round" class="TopRight"></path><path d="M88 306L-339 733" stroke-width="10" stroke="url(#SvgjsLinearGradient1784)" stroke-linecap="round" class="BottomLeft"></path><path d="M2 360L377 -15" stroke-width="10" stroke="url(#SvgjsLinearGradient1783)" stroke-linecap="round" class="TopRight"></path><path d="M139 83L307 -85" stroke-width="10" stroke="url(#SvgjsLinearGradient1783)" stroke-linecap="round" class="TopRight"></path><path d="M33 543L409 167" stroke-width="8" stroke="url(#SvgjsLinearGradient1783)" stroke-linecap="round" class="TopRight"></path><path d="M184 326L-41 551" stroke-width="10" stroke="url(#SvgjsLinearGradient1783)" stroke-linecap="round" class="TopRight"></path><path d="M475 24L324 175" stroke-width="10" stroke="url(#SvgjsLinearGradient1784)" stroke-linecap="round" class="BottomLeft"></path><path d="M576 753L937 392" stroke-width="8" stroke="url(#SvgjsLinearGradient1783)" stroke-linecap="round" class="TopRight"></path><path d="M370 454L728 96" stroke-width="8" stroke="url(#SvgjsLinearGradient1783)" stroke-linecap="round" class="TopRight"></path><path d="M109 721L396 434" stroke-width="6" stroke="url(#SvgjsLinearGradient1783)" stroke-linecap="round" class="TopRight"></path><path d="M515 457L878 94" stroke-width="6" stroke="url(#SvgjsLinearGradient1784)" stroke-linecap="round" class="BottomLeft"></path><path d="M196 17L363 -150" stroke-width="10" stroke="url(#SvgjsLinearGradient1784)" stroke-linecap="round" class="BottomLeft"></path><path d="M408 257L-16 681" stroke-width="6" stroke="url(#SvgjsLinearGradient1784)" stroke-linecap="round" class="BottomLeft"></path><path d="M181 893L-241 1315" stroke-width="10" stroke="url(#SvgjsLinearGradient1783)" stroke-linecap="round" class="TopRight"></path><path d="M260 880L621 519" stroke-width="6" stroke="url(#SvgjsLinearGradient1783)" stroke-linecap="round" class="TopRight"></path><path d="M34 760L416 378" stroke-width="6" stroke="url(#SvgjsLinearGradient1784)" stroke-linecap="round" class="BottomLeft"></path><path d="M65 745L-138 948" stroke-width="6" stroke="url(#SvgjsLinearGradient1784)" stroke-linecap="round" class="BottomLeft"></path><path d="M491 59L905 -355" stroke-width="10" stroke="url(#SvgjsLinearGradient1783)" stroke-linecap="round" class="TopRight"></path><path d="M33 31L400 -336" stroke-width="8" stroke="url(#SvgjsLinearGradient1784)" stroke-linecap="round" class="BottomLeft"></path><path d="M474 644L169 949" stroke-width="10" stroke="url(#SvgjsLinearGradient1783)" stroke-linecap="round" class="TopRight"></path><path d="M544 550L251 843" stroke-width="6" stroke="url(#SvgjsLinearGradient1784)" stroke-linecap="round" class="BottomLeft"></path><path d="M259 134L483 -90" stroke-width="8" stroke="url(#SvgjsLinearGradient1784)" stroke-linecap="round" class="BottomLeft"></path><path d="M199 529L17 711" stroke-width="10" stroke="url(#SvgjsLinearGradient1784)" stroke-linecap="round" class="BottomLeft"></path></g><defs><mask id="SvgjsMask1781"><rect width="600" height="900" fill="#ffffff"></rect></mask><linearGradient x1="112.5%" y1="8.33%" x2="-12.5%" y2="91.67%" gradientUnits="userSpaceOnUse" id="SvgjsLinearGradient1782"><stop stop-color="#0e2a47" offset="0"></stop><stop stop-color="rgba(68, 4, 0, 1)" offset="1"></stop></linearGradient><linearGradient x1="0%" y1="100%" x2="100%" y2="0%" id="SvgjsLinearGradient1783"><stop stop-color="rgba(154, 134, 134, 0)" offset="0"></stop><stop stop-color="rgba(154, 134, 134, 1)" offset="1"></stop></linearGradient><linearGradient x1="100%" y1="0%" x2="0%" y2="100%" id="SvgjsLinearGradient1784"><stop stop-color="rgba(154, 134, 134, 0)" offset="0"></stop><stop stop-color="rgba(154, 134, 134, 1)" offset="1"></stop></linearGradient></defs></svg>